{
  "accessors": [
    {
      "bufferView": 0,
      "componentType": 5125,
      "count": 6732,
      "max": [
        1174
      ],
      "min": [
        0
      ],
      "type": "SCALAR"
    },
    {
      "bufferView": 1,
      "componentType": 5125,
      "count": 6732,
      "max": [
        2349
      ],
      "min": [
        1175
      ],
      "type": "SCALAR"
    },
    {
      "bufferView": 2,
      "componentType": 5125,
      "count": 6798,
      "max": [
        3535
      ],
      "min": [
        2350
      ],
      "type": "SCALAR"
    },
    {
      "bufferView": 3,
      "componentType": 5125,
      "count": 6732,
      "max": [
        4710
      ],
      "min": [
        3536
      ],
      "type": "SCALAR"
    },
    {
      "bufferView": 4,
      "componentType": 5125,
      "count": 6732,
      "max": [
        5885
      ],
      "min": [
        4711
      ],
      "type": "SCALAR"
    },
    {
      "bufferView": 5,
      "componentType": 5125,
      "count": 6732,
      "max": [
        7060
      ],
      "min": [
        5886
      ],
      "type": "SCALAR"
    },
    {
      "bufferView": 6,
      "componentType": 5126,
      "count": 7061,
      "max": [
        31.677799224853516,
        46.27897644042969,
        30.2659912109375
      ],
      "min": [
        -30.980167388916016,
        0.14485549926757813,
        -31.28766441345215
      ],
      "type": "VEC3"
    },
    {
      "bufferView": 7,
      "componentType": 5126,
      "count": 7061,
      "max": [
        0.9999991059303284,
        0.9999663233757019,
        0.9999904632568359
      ],
      "min": [
        -0.9999430179595947,
        -1.0,
        -0.9999610185623169
      ],
      "type": "VEC3"
    },
    {
      "bufferView": 8,
      "componentType": 5126,
      "count": 7061,
      "max": [
        250.0,
        250.00001525878906
      ],
      "min": [
        -250.0,
        -250.0
      ],
      "type": "VEC2"
    }
  ],
  "asset": {
    "generator": "CLO Network OnlineAuth",
    "version": "2.0"
  },
  "bufferViews": [
    {
      "buffer": 0,
      "byteLength": 26928
    },
    {
      "buffer": 0,
      "byteLength": 26928,
      "byteOffset": 26928
    },
    {
      "buffer": 0,
      "byteLength": 27192,
      "byteOffset": 53856
    },
    {
      "buffer": 0,
      "byteLength": 26928,
      "byteOffset": 81048
    },
    {
      "buffer": 0,
      "byteLength": 26928,
      "byteOffset": 107976
    },
    {
      "buffer": 0,
      "byteLength": 26928,
      "byteOffset": 134904
    },
    {
      "buffer": 0,
      "byteLength": 84732,
      "byteOffset": 161832
    },
    {
      "buffer": 0,
      "byteLength": 84732,
      "byteOffset": 246564
    },
    {
      "buffer": 0,
      "byteLength": 56488,
      "byteOffset": 331296
    }
  ],
  "buffers": [
    {
      "byteLength": 387784,
      "uri": "data:application/octet-stream;base64,"
    }
  ],
  "extensionsUsed": [
    "KHR_materials_specular"
  ],
  "materials": [
    {
      "extensions": {
        "KHR_materials_specular": {
          "specularFactor": 0.15000000596046448
        }
      },
      "name": "Material20452",
      "pbrMetallicRoughness": {
        "metallicFactor": 0.0,
        "roughnessFactor": 0.5
      }
    },
    {
      "extensions": {
        "KHR_materials_specular": {
          "specularFactor": 0.15000000596046448
        }
      },
      "name": "Material20453",
      "pbrMetallicRoughness": {
        "metallicFactor": 0.0,
        "roughnessFactor": 0.5
      }
    },
    {
      "extensions": {
        "KHR_materials_specular": {
          "specularFactor": 0.15000000596046448
        }
      },
      "name": "Material20454",
      "pbrMetallicRoughness": {
        "metallicFactor": 0.0,
        "roughnessFactor": 0.5
      }
    },
    {
      "extensions": {
        "KHR_materials_specular": {
          "specularFactor": 0.15000000596046448
        }
      },
      "name": "Material20455",
      "pbrMetallicRoughness": {
        "metallicFactor": 0.0,
        "roughnessFactor": 0.5
      }
    },
    {
      "extensions": {
        "KHR_materials_specular": {
          "specularFactor": 0.15000000596046448
        }
      },
      "name": "Material20456",
      "pbrMetallicRoughness": {
        "metallicFactor": 0.0,
        "roughnessFactor": 0.5
      }
    },
    {
      "extensions": {
        "KHR_materials_specular": {
          "specularFactor": 0.15000000596046448
        }
      },
      "name": "Material20457",
      "pbrMetallicRoughness": {
        "metallicFactor": 0.0,
        "roughnessFactor": 0.5
      }
    }
  ],
  "meshes": [
    {
      "name": "_mesh",
      "primitives": [
        {
          "attributes": {
            "NORMAL": 7,
            "POSITION": 6,
            "TEXCOORD_0": 8
          },
          "indices": 0,
          "material": 0
        },
        {
          "attributes": {
            "NORMAL": 7,
            "POSITION": 6,
            "TEXCOORD_0": 8
          },
          "indices": 1,
          "material": 1
        },
        {
          "attributes": {
            "NORMAL": 7,
            "POSITION": 6,
            "TEXCOORD_0": 8
          },
          "indices": 2,
          "material": 2
        },
        {
          "attributes": {
            "NORMAL": 7,
            "POSITION": 6,
            "TEXCOORD_0": 8
          },
          "indices": 3,
          "material": 3
        },
        {
          "attributes": {
            "NORMAL": 7,
            "POSITION": 6,
            "TEXCOORD_0": 8
          },
          "indices": 4,
          "material": 4
        },
        {
          "attributes": {
            "NORMAL": 7,
            "POSITION": 6,
            "TEXCOORD_0": 8
          },
          "indices": 5,
          "material": 5
        }
      ]
    }
  ],
  "nodes": [
    {
      "children": [
        1
      ],
      "name": "Cubo_Clo_Scene_Node"
    },
    {
      "matrix": [
        1.0,
        0.0,
        0.0,
        0.0,
        0.0,
        1.0,
        0.0,
        0.0,
        0.0,
        0.0,
        1.0,
        0.0,
        0.0,
        -18.095605850219727,
        0.0,
        1.0
      ],
      "mesh": 0
    }
  ],
  "scene": 0,
  "scenes": [
    {
      "nodes": [
        0
      ]
    }
  ]
}